<svg xmlns="http://www.w3.org/2000/svg" width="100" height="100" viewBox="0 0 100 100"><defs><style>.cls-1{fill:#b43e4e;}.cls-2{fill:#fff;}</style></defs><g id="Ebene_1" data-name="Ebene 1"><circle class="cls-1" cx="50" cy="50" r="50"/><path class="cls-2" d="M35.2,62.1a5.1,5.1,0,0,0,3.7-1.4,5.2,5.2,0,0,0,1.5-3.8V52.1l.9-.3,1.1-.3a36.3,36.3,0,0,1,12-.6,21.9,21.9,0,0,1,5.3,1.2c-.1,1.2,0,2.4,0,3.5v1.3a4.9,4.9,0,0,0,5.2,5.3h8.5A5.6,5.6,0,0,0,77,60.7,4.8,4.8,0,0,0,78.5,57h0V51.8a7.6,7.6,0,0,0-1.9-5.2A19.8,19.8,0,0,0,70,41.9,47.6,47.6,0,0,0,54.4,38a50.6,50.6,0,0,0-21.2,2.6,26.7,26.7,0,0,0-8.7,4.7l-.5.5a8.1,8.1,0,0,0-2.5,6.3h0a13.1,13.1,0,0,1,0,2.8v1.9A5.7,5.7,0,0,0,23,60.6a5.2,5.2,0,0,0,3.8,1.5ZM24.4,56.8h0V54.9a15,15,0,0,0,0-3,5,5,0,0,1,1.6-4l.4-.4a23.2,23.2,0,0,1,7.7-4.1,47.1,47.1,0,0,1,20.1-2.5,44.7,44.7,0,0,1,14.6,3.7,15.7,15.7,0,0,1,5.6,3.9,4.8,4.8,0,0,1,1.2,3.3V57a2.1,2.1,0,0,1-2.3,2.3H64.9c-1.6,0-2.3-.8-2.3-2.4V51.8h0a2.1,2.1,0,0,0-1.3-2.1h-.1A21.3,21.3,0,0,0,54.7,48h0a39.1,39.1,0,0,0-12.9.6l-1.4.5-1.2.3h-.1l-1,.6a2.3,2.3,0,0,0-.6,1.7v5.2a2.4,2.4,0,0,1-.6,1.7,2.3,2.3,0,0,1-1.6.6H26.8Q24.6,59.2,24.4,56.8Z"/></g></svg>