<svg xmlns="http://www.w3.org/2000/svg" width="100" height="100" viewBox="0 0 100 100"><defs><style>.cls-1{fill:#474977;}.cls-2{fill:#fff;}</style></defs><g id="Ebene_1" data-name="Ebene 1"><circle class="cls-1" cx="50" cy="50" r="50"/><path class="cls-2" d="M64.8,56.1a4.9,4.9,0,0,0-3.6-1.7,5.1,5.1,0,0,0-3.7,1.7l-3.4,3.4-.8-.5-1.1-.5a39.4,39.4,0,0,1-8.9-8.1,24.6,24.6,0,0,1-2.9-4.6l2.5-2.4.9-1c2.3-2.2,2.3-5.1,0-7.4l-2.9-2.9-1-1.1-2-2a5.4,5.4,0,0,0-3.6-1.6A5.4,5.4,0,0,0,30.6,29h0l-3.7,3.6a8,8,0,0,0-2.3,5,16.9,16.9,0,0,0,1.4,8,45.6,45.6,0,0,0,8.2,13.8A50.4,50.4,0,0,0,51.1,72.7a26.1,26.1,0,0,0,9.4,2.8h.7a8,8,0,0,0,6.2-2.7h.1a17.5,17.5,0,0,1,1.9-2l1.4-1.4a5.6,5.6,0,0,0,1.6-3.7A5.3,5.3,0,0,0,70.7,62Zm3.9,11.3h0l-1.4,1.3a20.9,20.9,0,0,0-2,2.2,5.2,5.2,0,0,1-4.1,1.7h-.5a25.1,25.1,0,0,1-8.4-2.5A49.3,49.3,0,0,1,36.4,57.6a44,44,0,0,1-7.7-12.9A14.7,14.7,0,0,1,27.5,38,4.8,4.8,0,0,1,29,34.8l3.6-3.7a2.5,2.5,0,0,1,1.7-.7,2.1,2.1,0,0,1,1.5.7h.1l1.9,2a9.4,9.4,0,0,1,1,1l3,2.9a2.2,2.2,0,0,1,0,3.4l-.9.9-2.7,2.6h-.1a2.2,2.2,0,0,0-.6,2.4h.1A21.9,21.9,0,0,0,41,52.2h.1a38.5,38.5,0,0,0,9.5,8.7l1.3.7,1.1.6h.1a2.3,2.3,0,0,0,1.1.3,2,2,0,0,0,1.6-.8l3.7-3.7a3,3,0,0,1,1.6-.8,2.1,2.1,0,0,1,1.6.8h0l6,6A2.1,2.1,0,0,1,68.7,67.4Z"/><path class="cls-2" d="M52.1,36.6a13.7,13.7,0,0,1,7.4,3.9,13.2,13.2,0,0,1,3.8,7.4,1.6,1.6,0,0,0,1.5,1.2H65a1.5,1.5,0,0,0,1.2-1.7,17.3,17.3,0,0,0-4.6-9,16.6,16.6,0,0,0-9-4.6A1.4,1.4,0,0,0,50.9,35,1.4,1.4,0,0,0,52.1,36.6Z"/><path class="cls-2" d="M75.4,47A27.4,27.4,0,0,0,53,24.5a1.5,1.5,0,0,0-1.7,1.2,1.5,1.5,0,0,0,1.2,1.7,24.1,24.1,0,0,1,13.2,6.8,24.8,24.8,0,0,1,6.9,13.3A1.4,1.4,0,0,0,74,48.7h.3A1.5,1.5,0,0,0,75.4,47Z"/></g></svg>