<svg xmlns="http://www.w3.org/2000/svg" width="100" height="100" viewBox="0 0 100 100"><defs><style>.cls-1{fill:#474977;}.cls-2{fill:#fff;}</style></defs><g id="Ebene_1" data-name="Ebene 1"><circle class="cls-1" cx="50" cy="50" r="50"/><path class="cls-2" d="M55.9,51c.1.4,2.3,8.9-3,13.4a1.2,1.2,0,0,1-1.6-1.9c2.2-1.8,2.7-4.6,2.7-7a3.6,3.6,0,0,1-1.5.8c-1.2.3-2.4-.3-3.5-1.6a13.2,13.2,0,0,1-2.4-7.9c-4.5,7.6.6,15.6.8,16a1.1,1.1,0,0,1-.3,1.6h0a1.3,1.3,0,0,1-1.7-.4h0c0-.1-7.9-12.3,1.9-22a1.2,1.2,0,0,1,2.1,1.1s-1.4,6.6,1.5,10c.6.7,1,.8,1.1.8s1.2-1.7,1.5-2.9A1.2,1.2,0,0,1,54.8,50,1.3,1.3,0,0,1,55.9,51ZM82.6,63.2a4.2,4.2,0,0,1-4.3,4.2H70.8a4,4,0,0,1,2,2.4,4.4,4.4,0,0,1-2.9,5.4l-1.3.2a4,4,0,0,1-1.5-.3l-12-4.6a45.3,45.3,0,0,1-5.2.3l-4.5-.3L26.5,74.2a3.8,3.8,0,1,1-1.6-7.4l8.3-1.9L32,63.5a17.7,17.7,0,0,1-3.1-14.6c.2-1,.5-1.9.7-2.7,1.3-4.8,1.8-6.8,0-9.8a1.4,1.4,0,0,1,.4-1.7,1.3,1.3,0,0,1,1.2,0l5.4,3.1c1.3-4.6,5.8-17.6,17.6-16.9a1.1,1.1,0,0,1,1,1.3,1.1,1.1,0,0,1-.5.9,3.1,3.1,0,0,0-1.2,2.4c-.4,2.1.1,6.9,7.2,16,1.3-1.2,3.8-4.2,2.4-9.9a1.1,1.1,0,0,1,.8-1.4,1.2,1.2,0,0,1,1.4.6c.4.7,8.9,16.5,5.5,28.1h7.5A4.4,4.4,0,0,1,82.6,63.2ZM39.9,69.1a16.7,16.7,0,0,1-4.4-2.3l-10,2.3a1.4,1.4,0,0,0-1.1,1.7A1.5,1.5,0,0,0,26,71.9Zm10-.8c8.7,0,14.5-2.4,17.3-7.1,4.1-6.9,1-17.5-1.5-23.9a10.8,10.8,0,0,1-4.6,6.8,1.1,1.1,0,0,1-1.6-.2c-6.5-8.1-9.4-14.5-8.4-19a8.3,8.3,0,0,1,.4-1.5c-10,1.6-12.9,16.3-13,16.5a1.2,1.2,0,0,1-1.4.9h-.3L33,38.5c.5,2.4-.2,4.8-1.1,8.3a17.6,17.6,0,0,0-.7,2.7A14.8,14.8,0,0,0,33.9,62C37.1,66.2,42.6,68.3,49.9,68.3Zm20.6,2.1a2,2,0,0,0-1.2-1.2l-4.8-1.8a19.2,19.2,0,0,1-5.1,2.2l8.5,3.2a1.9,1.9,0,0,0,2.2-.7,2.1,2.1,0,0,0,.4-1.7Zm9.7-7.1a1.8,1.8,0,0,0-1.9-1.9H69.8l-.6,1.2a19.5,19.5,0,0,1-1.7,2.3l10.8.3a1.6,1.6,0,0,0,1.3-.6,1.8,1.8,0,0,0,.6-1.4Z"/></g></svg>